<?xml version="1.0"?><svg xmlns="http://www.w3.org/2000/svg"  viewBox="0 0 30 30" width="30px" height="30px">    <path d="M 26.195312 3.5507812 L 23.136719 9.2265625 L 27.544922 6.1425781 L 26.195312 3.5507812 z M 3.7304688 3.5703125 L 2.4238281 6.1816406 L 6.7753906 9.2265625 L 3.7304688 3.5703125 z M 27.792969 6.6914062 L 22.414062 10.455078 L 15.3125 15.783203 L 15.164062 15.894531 L 15.96875 18.162109 L 25.980469 11.251953 L 28 7.0488281 L 27.792969 6.6914062 z M 2.15625 6.7167969 L 2 7.0292969 L 3.9824219 11.244141 L 13.947266 18.160156 L 14.75 15.894531 L 14.601562 15.783203 L 7.4980469 10.455078 L 2.15625 6.7167969 z M 4.4863281 12.314453 L 6.5429688 16.681641 L 9.8613281 18.861328 L 13.699219 18.861328 L 13.742188 18.738281 L 4.4863281 12.314453 z M 25.462891 12.328125 L 16.173828 18.742188 L 16.214844 18.861328 L 19.876953 18.861328 L 23.376953 16.673828 L 25.462891 12.328125 z M 14.957031 19.578125 A 1.184 1.184 0 0 0 13.773438 20.763672 A 1.184 1.184 0 0 0 14.957031 21.947266 A 1.184 1.184 0 0 0 16.140625 20.763672 A 1.184 1.184 0 0 0 14.957031 19.578125 z M 18.578125 20.384766 L 17.011719 21.664062 L 18.009766 24.710938 L 21.09375 22.398438 L 18.730469 20.507812 L 18.578125 20.384766 z M 11.412109 20.482422 L 11.167969 20.666016 L 8.8398438 22.412109 L 11.900391 24.707031 L 12.871094 21.697266 L 11.412109 20.482422 z M 14.957031 23.486328 L 12.308594 25.013672 L 14.957031 27 L 17.605469 25.013672 L 14.957031 23.486328 z"/></svg>